Coordinates
version=1
nRows=14
nColumns=46
inDegrees=yes

Units are S.I. units (second, meters, Newtons, ...)
Angles are in degrees.

endheader
time	pelvis_tilt	pelvis_list	pelvis_rotation	pelvis_tx	pelvis_ty	pelvis_tz	bb_angle	bb_tx	bb_ty	bb_tz	hip_flexion_r	hip_adduction_r	hip_rotation_r	knee_angle_r	knee_angle_r_beta	ankle_angle_r	subtalar_angle_r	mtp_angle_r	crank_angle_r	hip_flexion_l	hip_adduction_l	hip_rotation_l	knee_angle_l	knee_angle_l_beta	ankle_angle_l	subtalar_angle_l	mtp_angle_l	crank_angle_l	lumbar_extension	lumbar_bending	lumbar_rotation	arm_flex_r	arm_add_r	arm_rot_r	elbow_flex_r	pro_sup_r	wrist_flex_r	wrist_dev_r	arm_flex_l	arm_add_l	arm_rot_l	elbow_flex_l	pro_sup_l	wrist_flex_l	wrist_dev_l
      5.00000000	    -18.60871566	      5.29527699	      6.54167252	      0.16769296	      1.14592228	     -0.22301284	      0.00000000	      0.50000000	      0.00000000	      0.25000000	     55.47996355	     -8.74054280	      7.77314913	     77.01443806	      1.34415552	     -8.99997633	    -13.79301397	      0.00000000	      0.00000000	     66.36443924	      4.22285957	      2.18124916	     56.14918929	      0.97998823	      5.16656383	     -6.79759706	      0.00000000	      0.00000000	    -60.74270561	     -4.52920258	     -5.82757326	     89.20007062	    -19.34058850	     37.22657433	     44.10233115	     38.38916328	      0.00000000	      0.00000000	     89.70991872	     -5.28125144	     29.35640700	     52.42490296	     28.53148352	      0.00000000	      0.00000000
      5.00500000	    -18.44297277	      4.64162419	      6.00391952	      0.16850413	      1.14351282	     -0.22341648	      0.00000000	      0.50000000	      0.00000000	      0.25000000	     56.68539287	     -7.91088988	      7.67276821	     79.67639055	      1.39061535	     -8.32341714	    -13.77524984	      0.00000000	      0.00000000	     65.07844333	      3.47809099	      2.50360376	     54.19101566	      0.94581165	      4.34628957	     -6.54424102	      0.00000000	      0.00000000	    -60.67189482	     -4.25669344	     -5.05027620	     89.24560111	    -19.26506960	     37.27732401	     44.29269126	     38.43529076	      0.00000000	      0.00000000	     89.69632908	     -5.51185389	     29.34958268	     52.39692143	     28.50574389	      0.00000000	      0.00000000
      5.01000000	    -18.46964031	      4.23174106	      5.36917953	      0.16931453	      1.14077469	     -0.22408221	      0.00000000	      0.50000000	      0.00000000	      0.25000000	     58.19851791	     -7.20185443	      7.94508958	     82.39984023	      1.43814852	     -7.20547177	    -12.73776916	      0.00000000	      0.00000000	     63.91795707	      2.88370898	      2.62746914	     52.20753379	      0.91119336	      3.14457603	     -7.11298504	      0.00000000	      0.00000000	    -60.46025772	     -4.20734562	     -4.29203316	     89.18433105	    -19.75005863	     37.45707799	     45.19908098	     38.65034548	      0.00000000	      0.00000000	     89.68814976	     -5.76384089	     29.88468855	     52.30403491	     28.46135235	      0.00000000	      0.00000000
      5.01500000	    -18.27035136	      3.65943099	      4.73341539	      0.17038214	      1.13860748	     -0.22476933	      0.00000000	      0.50000000	      0.00000000	      0.25000000	     59.40445494	     -6.39598522	      7.93115154	     84.96748878	      1.48296244	     -6.37412988	    -12.29812465	      0.00000000	      0.00000000	     62.50378057	      2.14735099	      2.87389802	     50.27057423	      0.87738704	      2.09056729	     -7.19894859	      0.00000000	      0.00000000	    -60.46805450	     -3.98216715	     -3.32091109	     89.14628891	    -20.58292947	     38.21929051	     46.46760601	     39.04718275	      0.00000000	      0.00000000	     89.68462099	     -6.09653991	     30.55511400	     52.25684620	     28.39805438	      0.00000000	      0.00000000
      5.02000000	    -18.07920338	      2.96458605	      3.98769779	      0.17149246	      1.13642129	     -0.22538150	      0.00000000	      0.50000000	      0.00000000	      0.25000000	     60.61994233	     -5.38332268	      7.84300492	     87.39014348	      1.52524574	     -5.87066636	    -12.24803637	      0.00000000	      0.00000000	     61.14202208	      1.19878665	      3.10715017	     48.47309923	      0.84601518	      1.15566054	     -6.96908831	      0.00000000	      0.00000000	    -60.37487122	     -3.71708955	     -2.39997776	     89.17194673	    -20.46621753	     38.42279223	     46.78034581	     39.13853065	      0.00000000	      0.00000000	     89.66825281	     -6.49329063	     30.51817938	     52.05831010	     28.35018117	      0.00000000	      0.00000000
      5.02500000	    -17.60149149	      2.25517358	      2.82395407	      0.17274220	      1.13436695	     -0.22537478	      0.00000000	      0.50000000	      0.00000000	      0.25000000	     61.60962985	     -4.00606099	      7.88642639	     89.78168940	      1.56698609	     -5.22745155	    -11.81845065	      0.00000000	      0.00000000	     59.87516790	     -0.47074755	      2.40796384	     47.46371438	      0.82839809	      0.34731352	     -6.24411949	      0.00000000	      0.00000000	    -60.53143382	     -3.74845206	     -1.22965242	     89.17182568	    -20.51933007	     38.80244682	     47.41513993	     39.31590189	      0.00000000	      0.00000000	     89.66003507	     -6.94248417	     30.90743433	     51.61672508	     28.28576806	      0.00000000	      0.00000000
      5.03000000	    -17.43644655	      1.69504860	      1.98649076	      0.17374075	      1.13238333	     -0.22613030	      0.00000000	      0.50000000	      0.00000000	      0.25000000	     62.95691875	     -3.09347611	      7.88436986	     92.06594216	      1.60685382	     -4.78304184	    -11.34585980	      0.00000000	      0.00000000	     58.46208355	     -1.38176893	      2.49131756	     45.68400015	      0.79733622	     -0.80026670	     -5.97795884	      0.00000000	      0.00000000	    -60.41617384	     -3.59052237	     -0.00978224	     89.15412286	    -21.40044028	     39.80881810	     48.53635109	     39.69351664	      0.00000000	      0.00000000	     89.66394269	     -7.34256126	     31.89037112	     51.14889106	     28.27902262	      0.00000000	      0.00000000
      5.03500000	    -17.24730160	      1.00269478	      1.18579539	      0.17476317	      1.13056855	     -0.22726470	      0.00000000	      0.50000000	      0.00000000	      0.25000000	     64.25519096	     -2.23046209	      7.59371237	     94.20815308	      1.64424245	     -4.55714395	    -11.30562835	      0.00000000	      0.00000000	     57.05905085	     -2.30881519	      2.75233785	     44.07028682	      0.76917161	     -1.57645567	     -5.67228134	      0.00000000	      0.00000000	    -60.36251332	     -3.21560760	      1.02303793	     89.21536320	    -21.14811369	     39.94972436	     48.75019573	     39.75475624	      0.00000000	      0.00000000	     89.63008854	     -7.79516570	     31.78146268	     50.98285112	     28.26717498	      0.00000000	      0.00000000
      5.04000000	    -17.13391727	      0.61990769	      0.44070430	      0.17540116	      1.12973259	     -0.22803310	      0.00000000	      0.50000000	      0.00000000	      0.25000000	     65.61785570	     -1.59626563	      7.51782581	     96.10677951	      1.67737974	     -4.36775022	    -11.07756341	      0.00000000	      0.00000000	     55.05819434	     -2.72325776	      3.44119212	     41.23387862	      0.71966695	     -3.41095904	     -6.87433442	      0.00000000	      0.00000000	    -60.27865712	     -3.09495118	      1.70861085	     89.22280809	    -21.14320897	     40.44291950	     49.27168248	     39.91577771	      0.00000000	      0.00000000	     89.62280418	     -8.33073775	     32.68958117	     50.16406649	     28.21983013	      0.00000000	      0.00000000
      5.04500000	    -17.01235613	     -0.10630482	     -0.43498422	      0.17608674	      1.12822903	     -0.22906536	      0.00000000	      0.50000000	      0.00000000	      0.25000000	     67.00438173	     -0.69119219	      7.18609541	     97.99205424	      1.71028399	     -4.18862244	    -10.85617374	      0.00000000	      0.00000000	     53.64700683	     -3.77647759	      3.67098165	     39.57810306	      0.69076821	     -4.23785387	     -6.34337025	      0.00000000	      0.00000000	    -60.11073432	     -2.76619559	      2.77308768	     89.26972703	    -20.80482285	     40.62526770	     49.43741810	     39.96338047	      0.00000000	      0.00000000	     89.60009290	     -8.79454426	     32.77001942	     49.93930282	     28.20260967	      0.00000000	      0.00000000
      5.05000000	    -16.77403035	     -0.46887349	     -1.43223118	      0.17683039	      1.12775156	     -0.22956824	      0.00000000	      0.50000000	      0.00000000	      0.25000000	     68.23188975	      0.12117363	      7.17852144	     99.70125725	      1.74011521	     -3.87199159	    -10.39910940	      0.00000000	      0.00000000	     51.88782790	     -4.87029541	      3.02353519	     37.60640368	      0.65635556	     -5.30128226	     -5.42896044	      0.00000000	      0.00000000	    -60.09571846	     -2.81529675	      3.55503794	     89.30309841	    -20.33890615	     40.95786171	     49.37350587	     39.96885918	      0.00000000	      0.00000000	     89.60443104	     -9.43012267	     33.90289914	     49.16153817	     28.19096513	      0.00000000	      0.00000000
      5.05500000	    -16.72905848	     -1.20248639	     -2.48130978	      0.17741231	      1.12652087	     -0.22997390	      0.00000000	      0.50000000	      0.00000000	      0.25000000	     69.67004333	      1.20010777	      6.85489498	    101.32801948	      1.76850756	     -3.61236662	     -9.95976711	      0.00000000	      0.00000000	     50.64774113	     -6.13703521	      2.92296243	     36.29908197	      0.63353850	     -6.27447129	     -5.03595448	      0.00000000	      0.00000000	    -59.79003729	     -2.59026165	      4.42742573	     89.36729616	    -19.11829796	     41.14600943	     48.56841879	     39.74797340	      0.00000000	      0.00000000	     89.59569439	    -10.80626966	     35.78297967	     48.71978121	     28.65535897	      0.00000000	      0.00000000
      5.06000000	    -16.62632516	     -1.76833981	     -3.34420413	      0.17775705	      1.12614471	     -0.23065069	      0.00000000	      0.50000000	      0.00000000	      0.25000000	     70.98811574	      1.96693988	      6.57413274	    102.82321302	      1.79460361	     -3.09379251	     -9.35989837	      0.00000000	      0.00000000	     49.18179992	     -7.13196105	      2.68090499	     34.68636456	      0.60539127	     -7.46646078	     -4.63889945	      0.00000000	      0.00000000	    -59.65028303	     -2.37635212	      5.19788389	     89.41170989	    -18.18464024	     41.12928109	     48.03333885	     39.64625255	      0.00000000	      0.00000000	     89.58927838	    -11.32727211	     36.33622277	     47.85325724	     28.95345657	      0.00000000	      0.00000000
      5.06500000	    -16.54202718	     -2.19766835	     -4.18690879	      0.17822429	      1.12650631	     -0.23135869	      0.00000000	      0.50000000	      0.00000000	      0.25000000	     72.24497975	      2.61694898	      6.39794000	    104.07203466	      1.81639966	     -2.61674528	     -8.73528920	      0.00000000	      0.00000000	     47.61679979	     -8.09734550	      1.96837774	     32.92367887	      0.57462660	     -8.64998371	     -3.80087937	      0.00000000	      0.00000000	    -59.58522840	     -2.21453360	      5.85289013	     89.44994047	    -17.27326520	     41.15048594	     47.60731653	     39.48561968	      0.00000000	      0.00000000	     89.58640859	    -11.87536256	     36.90212878	     47.10798091	     28.91329104	      0.00000000	      0.00000000
